<?xml version="1.0" standalone="no"?>
<!DOCTYPE svg PUBLIC "-//W3C//DTD SVG 20010904//EN"
 "http://www.w3.org/TR/2001/REC-SVG-20010904/DTD/svg10.dtd">
<svg version="1.0" xmlns="http://www.w3.org/2000/svg"
 width="1024.000000pt" height="1024.000000pt" viewBox="0 0 1024.000000 1024.000000"
 preserveAspectRatio="xMidYMid meet">

<g transform="translate(0.000000,1024.000000) scale(0.100000,-0.100000)"
fill="#000000" stroke="none">
<path d="M4697 8826 c-41 -38 -43 -67 -18 -236 39 -256 39 -252 0 -294 -32
-34 -43 -38 -189 -70 -85 -19 -210 -51 -277 -70 -67 -20 -143 -36 -169 -36
-40 0 -51 5 -78 34 -18 18 -46 69 -63 112 -18 44 -52 126 -77 184 -81 188
-102 191 -355 56 -97 -51 -243 -128 -326 -172 -172 -89 -205 -116 -205 -167 0
-35 22 -71 174 -287 57 -80 66 -98 66 -137 0 -24 -5 -53 -10 -63 -6 -11 -56
-59 -113 -107 -56 -48 -147 -131 -202 -184 -112 -108 -129 -119 -180 -119 -49
0 -56 4 -233 151 -222 184 -230 184 -355 -8 -308 -471 -347 -535 -347 -574 0
-25 7 -46 22 -62 13 -14 100 -64 193 -112 188 -96 202 -106 221 -152 21 -49
18 -63 -35 -191 -28 -64 -62 -160 -76 -212 -38 -138 -54 -179 -84 -212 -43
-48 -78 -50 -273 -12 -188 37 -224 40 -262 23 -50 -23 -53 -47 -66 -456 -12
-354 -11 -385 4 -408 30 -46 49 -48 258 -38 217 12 238 8 281 -49 21 -28 28
-54 42 -158 9 -69 30 -194 46 -279 46 -236 45 -238 -198 -315 -214 -68 -237
-78 -259 -110 -23 -36 -14 -84 34 -191 22 -49 88 -200 146 -335 114 -264 138
-300 198 -300 22 0 84 30 204 100 94 56 187 103 206 106 45 8 99 -16 131 -57
14 -19 59 -79 100 -134 41 -55 111 -142 156 -193 l81 -93 0 -58 c0 -66 12 -49
-197 -278 -98 -107 -103 -114 -103 -156 0 -56 4 -61 213 -222 93 -72 223 -172
288 -223 192 -149 197 -148 362 118 65 105 128 195 140 202 46 24 98 13 212
-44 61 -31 175 -81 255 -112 172 -68 210 -98 210 -168 0 -24 -21 -122 -45
-218 -55 -213 -56 -239 -14 -274 17 -14 34 -26 37 -26 4 0 34 -5 67 -10 274
-46 631 -100 661 -100 40 0 94 44 94 77 0 10 11 110 24 222 22 188 26 206 49
229 35 35 99 35 134 -1 24 -23 27 -38 48 -241 31 -305 29 -303 263 -267 81 12
170 26 197 31 28 5 128 21 223 36 164 25 174 28 197 56 34 40 32 67 -19 260
-61 226 -61 229 -40 273 22 47 34 54 198 120 76 30 188 80 249 111 121 61 181
72 228 41 13 -9 75 -99 137 -200 62 -102 119 -190 126 -196 24 -20 82 -24 113
-9 39 20 562 422 596 459 20 22 27 40 27 69 0 37 -10 51 -150 206 -201 222
-203 234 -65 392 46 54 129 156 183 227 91 121 101 131 145 143 42 12 51 11
93 -8 26 -11 105 -57 177 -102 103 -65 139 -82 177 -86 79 -7 89 7 256 383 80
182 149 349 151 372 8 66 -14 80 -230 152 -281 94 -284 99 -238 333 16 84 35
198 41 253 16 140 25 166 65 205 36 35 37 35 128 35 51 0 151 -4 224 -9 l132
-9 30 31 c37 36 37 27 17 514 -12 315 -13 318 -37 344 -43 47 -56 47 -276 9
-171 -31 -209 -35 -238 -25 -45 15 -81 58 -99 123 -9 28 -27 92 -41 141 -15
48 -46 135 -71 192 -57 134 -57 192 -2 244 13 12 97 60 188 108 91 47 175 96
187 109 16 15 23 34 23 60 0 32 -31 86 -200 353 -110 173 -212 325 -226 337
-62 55 -96 41 -269 -108 -156 -134 -179 -149 -228 -149 -52 0 -66 8 -195 127
-63 57 -158 140 -211 184 -101 82 -121 108 -121 160 0 40 3 45 136 230 98 136
114 164 114 196 0 21 -8 48 -18 59 -15 19 -398 226 -638 346 -91 45 -124 45
-166 3 -13 -13 -58 -109 -101 -213 -44 -106 -89 -200 -102 -212 -32 -30 -82
-39 -135 -25 -25 7 -103 29 -175 49 -71 20 -182 46 -245 58 -107 20 -118 24
-152 59 -47 45 -47 57 -13 264 34 203 33 219 -9 261 l-34 34 -400 0 -399 0
-26 -24z m688 -1216 c771 -86 1421 -476 1836 -1099 282 -425 429 -989 390
-1502 -42 -548 -219 -991 -559 -1405 -366 -445 -867 -745 -1432 -858 -633
-127 -1327 5 -1866 355 -485 315 -845 788 -1010 1323 -100 328 -130 701 -84
1059 100 778 556 1446 1247 1826 271 149 593 254 888 290 50 6 101 13 115 15
57 8 391 5 475 -4z"/>
<path d="M4728 6778 c-64 -17 -121 -77 -161 -170 -19 -46 -99 -234 -177 -418
-78 -184 -155 -364 -170 -400 -15 -36 -92 -216 -170 -400 -78 -184 -163 -382
-187 -440 -25 -58 -69 -161 -98 -230 -28 -69 -76 -181 -105 -250 l-53 -125
-142 -145 c-78 -80 -149 -159 -159 -177 -24 -48 -21 -96 10 -127 l27 -26 384
0 384 0 24 25 c14 13 25 30 25 38 0 8 -28 76 -61 151 -57 128 -61 142 -57 194
9 99 62 212 121 256 26 19 44 21 241 24 263 4 259 7 264 -117 7 -134 -1 -161
-71 -252 -120 -156 -127 -168 -127 -216 0 -57 14 -81 55 -99 52 -21 1688 -20
1790 1 346 74 609 423 608 810 -1 269 -121 487 -387 702 l-39 32 72 77 c87 93
152 200 188 309 37 111 39 281 4 400 -85 292 -315 510 -602 570 -58 12 -183
15 -732 14 -400 -1 -677 -5 -699 -11z m1274 -243 c200 -41 374 -188 440 -370
29 -82 35 -210 13 -294 -45 -175 -152 -301 -338 -397 -132 -68 -130 -92 9
-140 132 -45 190 -80 280 -169 134 -132 190 -279 181 -470 -7 -169 -66 -297
-194 -422 -87 -86 -197 -144 -315 -168 -135 -26 -383 -14 -480 24 -43 16 -111
85 -138 138 l-25 48 -3 1070 c-2 1059 -2 1070 18 1103 34 55 62 61 282 62 137
0 219 -5 270 -15z m-1344 -906 c9 -18 12 -98 10 -322 l-3 -299 -28 -24 c-26
-22 -36 -24 -146 -24 -120 0 -141 6 -141 41 0 10 27 84 61 166 33 81 86 209
116 283 91 221 101 236 131 179z"/>
<path d="M5730 5940 l0 -353 64 5 c127 11 253 94 307 203 21 43 24 64 24 150
0 92 -2 104 -30 153 -60 109 -171 178 -302 189 l-63 6 0 -353z"/>
<path d="M5748 5183 c-17 -4 -18 -35 -18 -460 l0 -455 68 4 c108 7 225 76 312
185 50 64 64 95 85 182 16 63 17 83 7 148 -29 185 -167 343 -338 388 -58 15
-83 17 -116 8z"/>
</g>
</svg>
